<svg width="178" height="179" viewBox="0 0 178 179" fill="none" xmlns="http://www.w3.org/2000/svg">
<path fill-rule="evenodd" clip-rule="evenodd" d="M89 9.77875L16.766 52.2213L89 91.3991L161.234 52.2213L89 9.77875ZM169.446 47.7675L89 0.5L8.55431 47.7675L0.499998 52.5L8.7117 56.9538L89 100.5L169.288 56.9538L177.5 52.5L169.446 47.7675ZM19.085 80.58L8.55431 86.7675L0.499998 91.5L8.7117 95.9538L89 139.5L169.288 95.9538L177.5 91.5L169.446 86.7675L158.915 80.58L150.703 85.0338L161.234 91.2213L89 130.399L16.766 91.2213L27.2967 85.0338L19.085 80.58ZM8.55431 125.768L18.2 120.1L26.4117 124.554L16.766 130.221L89 169.399L161.234 130.221L151.588 124.554L159.8 120.1L169.446 125.768L177.5 130.5L169.288 134.954L89 178.5L8.7117 134.954L0.499998 130.5L8.55431 125.768Z" fill="#0078FF"/>
</svg>
