<svg fill="none" xmlns="http://www.w3.org/2000/svg" viewBox="0 0 178 179"><path fill-rule="evenodd" clip-rule="evenodd" d="M89 9.77875 16.766 52.2213 89 91.3991l72.234-39.1778L89 9.77875Zm80.446 37.98875L89 .5 8.55431 47.7675.499998 52.5 8.7117 56.9538 89 100.5l80.288-43.5462L177.5 52.5l-8.054-4.7325ZM19.085 80.58 8.55431 86.7675.499998 91.5 8.7117 95.9538 89 139.5l80.288-43.5462L177.5 91.5l-8.054-4.7325-10.531-6.1875-8.212 4.4538 10.531 6.1875L89 130.399 16.766 91.2213l10.5307-6.1875L19.085 80.58ZM8.55431 125.768 18.2 120.1l8.2117 4.454-9.6457 5.667L89 169.399l72.234-39.178-9.646-5.667 8.212-4.454 9.646 5.668 8.054 4.732-8.212 4.454L89 178.5 8.7117 134.954.499998 130.5l8.054312-4.732Z" fill="#0078FF"/></svg>