<svg width="44" height="40" viewBox="0 0 44 40" fill="none" xmlns="http://www.w3.org/2000/svg">
<path fill-rule="evenodd" clip-rule="evenodd" d="M22 8C23.6569 8 25 6.65685 25 5C25 3.34315 23.6569 2 22 2C20.3431 2 19 3.34315 19 5C19 6.65685 20.3431 8 22 8ZM39 17L29 22L22 8L15 22L5 17C6.65685 17 8 15.6569 8 14C8 12.3431 6.65685 11 5 11C3.34315 11 2 12.3431 2 14C2 15.6569 3.34315 17 5 17L11 38H33L39 17ZM39 17C37.3431 17 36 15.6569 36 14C36 12.3431 37.3431 11 39 11C40.6569 11 42 12.3431 42 14C42 15.6569 40.6569 17 39 17Z" fill="white"/>
<path d="M29 22L27.2111 22.8944L28.1056 24.6833L29.8944 23.7889L29 22ZM15 22L14.1056 23.7889L15.8944 24.6833L16.7889 22.8944L15 22ZM11 38L9.07695 38.5494L9.4914 40H11V38ZM33 38V40H34.5086L34.923 38.5494L33 38ZM23 5C23 5.55228 22.5523 6 22 6V10C24.7614 10 27 7.76142 27 5H23ZM22 4C22.5523 4 23 4.44772 23 5H27C27 2.23858 24.7614 0 22 0V4ZM21 5C21 4.44772 21.4477 4 22 4V0C19.2386 0 17 2.23858 17 5H21ZM22 6C21.4477 6 21 5.55228 21 5H17C17 7.76142 19.2386 10 22 10V6ZM29.8944 23.7889L39.8944 18.7889L38.1056 15.2111L28.1056 20.2111L29.8944 23.7889ZM20.2111 8.89443L27.2111 22.8944L30.7889 21.1056L23.7889 7.10557L20.2111 8.89443ZM16.7889 22.8944L23.7889 8.89443L20.2111 7.10557L13.2111 21.1056L16.7889 22.8944ZM4.10557 18.7889L14.1056 23.7889L15.8944 20.2111L5.89443 15.2111L4.10557 18.7889ZM5 19C7.76142 19 10 16.7614 10 14H6C6 14.5523 5.55228 15 5 15V19ZM10 14C10 11.2386 7.76142 9 5 9V13C5.55228 13 6 13.4477 6 14H10ZM5 9C2.23858 9 0 11.2386 0 14H4C4 13.4477 4.44772 13 5 13V9ZM0 14C0 16.7614 2.23858 19 5 19V15C4.44772 15 4 14.5523 4 14H0ZM12.923 37.4506L6.92305 16.4506L3.07695 17.5494L9.07695 38.5494L12.923 37.4506ZM33 36H11V40H33V36ZM37.077 16.4506L31.077 37.4506L34.923 38.5494L40.923 17.5494L37.077 16.4506ZM34 14C34 16.7614 36.2386 19 39 19V15C38.4477 15 38 14.5523 38 14H34ZM39 9C36.2386 9 34 11.2386 34 14H38C38 13.4477 38.4477 13 39 13V9ZM44 14C44 11.2386 41.7614 9 39 9V13C39.5523 13 40 13.4477 40 14H44ZM39 19C41.7614 19 44 16.7614 44 14H40C40 14.5523 39.5523 15 39 15V19Z" fill="white"/>
</svg>
