<?xml version="1.0" encoding="utf-8"?>
<!-- Generator: Adobe Illustrator 27.3.1, SVG Export Plug-In . SVG Version: 6.00 Build 0)  -->
<svg version="1.1" xmlns="http://www.w3.org/2000/svg" xmlns:xlink="http://www.w3.org/1999/xlink" x="0px" y="0px"
	 viewBox="0 0 915.5 439.4" style="enable-background:new 0 0 915.5 439.4;" xml:space="preserve">
<style type="text/css">
	.st0{opacity:0.18;}
	.st1{fill:#B5C3C2;}
	.st2{opacity:0.29;fill:#B5C3C2;}
	.st3{fill:#95A9A7;}
	.st4{fill:#658280;}
	.st5{opacity:0.29;fill:#658280;}
	.st6{opacity:0.52;}
	.st7{fill:#FFFFFF;}
	.st8{opacity:0.5;fill:#FFFFFF;}
	.st9{opacity:0.33;fill:#FFFFFF;}
	.st10{opacity:0.4;fill:#FFFFFF;}
</style>
<g id="Bg">
</g>
<g id="Shadow">
	<g class="st0">
		<g>
			<g>
				<rect x="250.1" y="315.2" class="st1" width="40.4" height="77.6"/>
				<rect x="256.7" y="365.8" class="st1" width="27.2" height="32.6"/>
				<rect x="262.7" y="383.8" class="st1" width="15.1" height="18.1"/>
				<polygon class="st1" points="275.4,392.6 265.1,392.6 265.1,405 268.9,405 272.5,405 275.4,405 				"/>
				<g>
					<polygon class="st1" points="269.6,398 268.5,398 268.5,410.3 268.9,410.3 269.3,410.3 269.6,410.3 					"/>
					<polygon class="st1" points="272.1,402.3 271,402.3 271,414.6 271.4,414.6 271.8,414.6 272.1,414.6 					"/>
				</g>
				<rect x="249" y="392.2" class="st1" width="42.6" height="0.8"/>
				<rect x="255.7" y="398" class="st1" width="29.2" height="0.8"/>
				<rect x="261.6" y="401.6" class="st1" width="16.8" height="0.6"/>
				<rect x="259.2" y="393.7" class="st2" width="1.3" height="3.4"/>
				<rect x="262.7" y="393.7" class="st2" width="1.3" height="3.4"/>
				<rect x="266.2" y="393.7" class="st2" width="1.3" height="3.4"/>
				<rect x="269.7" y="393.7" class="st2" width="1.3" height="3.4"/>
				<rect x="273.2" y="393.7" class="st2" width="1.3" height="3.4"/>
				<rect x="276.7" y="393.7" class="st2" width="1.3" height="3.4"/>
				<rect x="280.2" y="393.7" class="st2" width="1.3" height="3.4"/>
				<rect x="253.6" y="385.7" class="st1" width="3.1" height="4.1"/>
				<rect x="259.7" y="385.7" class="st2" width="3.1" height="4.1"/>
				<rect x="265.7" y="385.7" class="st1" width="3.1" height="4.1"/>
				<rect x="271.8" y="385.7" class="st1" width="3.1" height="4.1"/>
				<rect x="277.8" y="385.7" class="st1" width="3.1" height="4.1"/>
				<rect x="283.9" y="385.7" class="st1" width="3.1" height="4.1"/>
				<rect x="253.6" y="379.4" class="st1" width="3.1" height="4.1"/>
				<rect x="259.7" y="379.4" class="st1" width="3.1" height="4.1"/>
				<rect x="265.7" y="379.4" class="st1" width="3.1" height="4.1"/>
				<rect x="271.8" y="379.4" class="st2" width="3.1" height="4.1"/>
				<rect x="277.8" y="379.4" class="st1" width="3.1" height="4.1"/>
				<rect x="283.9" y="379.4" class="st1" width="3.1" height="4.1"/>
				<rect x="253.6" y="373" class="st1" width="3.1" height="4.1"/>
				<rect x="259.7" y="373" class="st1" width="3.1" height="4.1"/>
				<rect x="265.7" y="373" class="st1" width="3.1" height="4.1"/>
				<rect x="271.8" y="373" class="st1" width="3.1" height="4.1"/>
				<rect x="277.8" y="373" class="st2" width="3.1" height="4.1"/>
				<rect x="283.9" y="373" class="st2" width="3.1" height="4.1"/>
				<rect x="253.6" y="366.7" class="st2" width="3.1" height="4.1"/>
				<rect x="259.7" y="366.7" class="st1" width="3.1" height="4.1"/>
				<rect x="265.7" y="366.7" class="st1" width="3.1" height="4.1"/>
				<rect x="271.8" y="366.7" class="st1" width="3.1" height="4.1"/>
				<rect x="277.8" y="366.7" class="st1" width="3.1" height="4.1"/>
				<rect x="283.9" y="366.7" class="st1" width="3.1" height="4.1"/>
				<rect x="253.6" y="360.4" class="st1" width="3.1" height="4.1"/>
				<rect x="259.7" y="360.4" class="st2" width="3.1" height="4.1"/>
				<rect x="265.7" y="360.4" class="st1" width="3.1" height="4.1"/>
				<rect x="271.8" y="360.4" class="st2" width="3.1" height="4.1"/>
				<rect x="277.8" y="360.4" class="st1" width="3.1" height="4.1"/>
				<rect x="283.9" y="360.4" class="st1" width="3.1" height="4.1"/>
				<rect x="253.6" y="354.1" class="st1" width="3.1" height="4.1"/>
				<rect x="259.7" y="354.1" class="st1" width="3.1" height="4.1"/>
				<rect x="265.7" y="354.1" class="st1" width="3.1" height="4.1"/>
				<rect x="271.8" y="354.1" class="st1" width="3.1" height="4.1"/>
				<rect x="277.8" y="354.1" class="st1" width="3.1" height="4.1"/>
				<rect x="283.9" y="354.1" class="st2" width="3.1" height="4.1"/>
				<rect x="253.6" y="347.8" class="st1" width="3.1" height="4.1"/>
				<rect x="259.7" y="347.8" class="st2" width="3.1" height="4.1"/>
				<rect x="265.7" y="347.8" class="st2" width="3.1" height="4.1"/>
				<rect x="271.8" y="347.8" class="st1" width="3.1" height="4.1"/>
				<rect x="277.8" y="347.8" class="st1" width="3.1" height="4.1"/>
				<rect x="283.9" y="347.8" class="st1" width="3.1" height="4.1"/>
				<rect x="253.6" y="341.5" class="st1" width="3.1" height="4.1"/>
				<rect x="259.7" y="341.5" class="st1" width="3.1" height="4.1"/>
				<rect x="265.7" y="341.5" class="st1" width="3.1" height="4.1"/>
				<rect x="271.8" y="341.5" class="st1" width="3.1" height="4.1"/>
				<rect x="277.8" y="341.5" class="st2" width="3.1" height="4.1"/>
				<rect x="283.9" y="341.5" class="st1" width="3.1" height="4.1"/>
				<rect x="253.6" y="335.1" class="st1" width="3.1" height="4.1"/>
				<rect x="259.7" y="335.1" class="st2" width="3.1" height="4.1"/>
				<rect x="265.7" y="335.1" class="st1" width="3.1" height="4.1"/>
				<rect x="271.8" y="335.1" class="st1" width="3.1" height="4.1"/>
				<rect x="277.8" y="335.1" class="st1" width="3.1" height="4.1"/>
				<rect x="283.9" y="335.1" class="st1" width="3.1" height="4.1"/>
				<rect x="253.6" y="328.8" class="st1" width="3.1" height="4.1"/>
				<rect x="259.7" y="328.8" class="st1" width="3.1" height="4.1"/>
				<rect x="265.7" y="328.8" class="st1" width="3.1" height="4.1"/>
				<rect x="271.8" y="328.8" class="st2" width="3.1" height="4.1"/>
				<rect x="277.8" y="328.8" class="st1" width="3.1" height="4.1"/>
				<rect x="283.9" y="328.8" class="st2" width="3.1" height="4.1"/>
				<rect x="253.6" y="322.5" class="st2" width="3.1" height="4.1"/>
				<rect x="259.7" y="322.5" class="st1" width="3.1" height="4.1"/>
				<rect x="265.7" y="322.5" class="st2" width="3.1" height="4.1"/>
				<rect x="271.8" y="322.5" class="st1" width="3.1" height="4.1"/>
				<rect x="277.8" y="322.5" class="st1" width="3.1" height="4.1"/>
				<rect x="283.9" y="322.5" class="st1" width="3.1" height="4.1"/>
			</g>
			<g>
				<rect x="132.8" y="324.5" class="st1" width="64.9" height="65.4"/>
				<rect x="130.9" y="389.2" class="st1" width="68.6" height="1.8"/>
				<rect x="134.9" y="384.6" class="st1" width="60.6" height="8.8"/>
				<rect x="139.6" y="387.4" class="st1" width="24" height="9.6"/>
				<polygon class="st1" points="153.5,394.3 139.6,394.3 139.6,399.3 149.5,399.3 				"/>
				<rect x="145.2" y="392.2" class="st1" width="1.3" height="11.2"/>
				<ellipse class="st1" cx="145.8" cy="404.1" rx="1.2" ry="0.6"/>
			</g>
			<polygon class="st1" points="735.5,319.5 664.4,319.5 655.5,415.6 735.5,407.6 			"/>
			<polygon class="st1" points="425.3,374.4 425.3,406.5 414.2,406.5 414.2,415.2 410.2,415.2 410.2,427.8 388.3,427.8 388.3,437.1 
				386.3,437.1 386.3,427.8 382,427.8 382,439.4 380.1,439.4 380.1,427.8 366.2,427.8 366.2,406.5 359,406.5 359,374.4 352.9,374.4 
				352.9,315.9 429.7,315.9 429.7,374.4 			"/>
		</g>
		<rect x="42" y="311" class="st1" width="849.4" height="9.7"/>
		<polygon class="st3" points="542,313.4 504.3,313.4 519,349.7 542,349.7 		"/>
		<g>
			<rect x="11.5" y="296.6" class="st3" width="891.8" height="15.4"/>
			<polygon class="st3" points="511.1,380.6 511.1,396.7 499.1,396.7 499.1,402.9 492.6,402.9 492.6,408 490.3,408 490.3,416.8 
				489.7,416.8 489.7,408 487.5,408 487.5,402.9 481,402.9 481,396.7 469,396.7 469,380.6 466.5,380.6 466.5,351.4 448,351.4 
				448,318.1 466.5,318.1 485.1,318.1 513.5,318.1 513.5,380.6 			"/>
			<polygon class="st3" points="580.5,362.1 522.1,362.1 522.1,361.6 524.7,361.6 524.7,313.9 577.9,313.9 577.9,361.6 580.5,361.6 
							"/>
			<rect x="262.2" y="310.5" class="st3" width="51.8" height="39.7"/>
			<rect x="165.2" y="310.5" class="st3" width="89.1" height="19.4"/>
			<rect x="213" y="325.6" class="st3" width="19.6" height="47.6"/>
			<rect x="217.3" y="360" class="st3" width="1" height="25.9"/>
			<rect x="220.6" y="358" class="st3" width="1" height="25.9"/>
			<rect x="214.5" y="369.7" class="st3" width="12" height="6.4"/>
			<rect x="250.9" y="310.5" class="st3" width="34.1" height="32.6"/>
			<rect x="322.4" y="310.5" class="st3" width="63.9" height="67.1"/>
			<rect x="328.7" y="368.8" class="st3" width="51.4" height="11.2"/>
			<rect x="317.4" y="375.5" class="st3" width="73.8" height="0.8"/>
			<rect x="310.8" y="310.5" class="st3" width="30.1" height="33.9"/>
			<rect x="95.1" y="310.5" class="st3" width="34.6" height="35.2"/>
			<g>
				<rect x="106.3" y="310.5" class="st3" width="68.9" height="44.8"/>
				<rect x="102.3" y="355.3" class="st3" width="74.7" height="1.7"/>
				<rect x="109.3" y="352.6" class="st3" width="30.3" height="9.1"/>
				<rect x="149.5" y="356.1" class="st3" width="5.1" height="5.5"/>
				<rect x="159.6" y="356.1" class="st3" width="5.6" height="5.5"/>
			</g>
			<rect x="76.3" y="310.5" class="st3" width="36.1" height="13.6"/>
			<rect x="62.7" y="310.5" class="st3" width="17.1" height="19.4"/>
			<rect x="42" y="310.5" class="st3" width="29.2" height="6.8"/>
			<rect x="380" y="310.5" class="st3" width="359.8" height="15.1"/>
			<path class="st3" d="M715.5,365.3c0-1.2-1.9-2.1-4.3-2.1c-2.3,0-4.3,0.9-4.3,2l-5.1,0.1c-0.3-3.4-1.9-6.7-4.7-9.7l4.6-1
				c0.6,0.8,2.2,1.4,4,1.4c2.4,0,4.3-0.9,4.3-2.1c0-1.2-1.9-2.1-4.3-2.1s-4.3,0.9-4.3,2.1c0,0.2,0,0.3,0.1,0.5l-4.7,1
				c-2.6-2.7-6.2-5.1-10.6-7.3c-0.4-0.2-0.7-0.3-1.1-0.5l4.3-2.2c0.7,0.2,1.5,0.4,2.5,0.4c2.4,0,4.3-0.9,4.3-2.1
				c0-1.2-1.9-2.1-4.3-2.1s-4.3,0.9-4.3,2.1c0,0.6,0.6,1.2,1.5,1.6l-4.2,2.2c-3-1.3-6.3-2.5-9.7-3.5l26.1-23.2h4.7v-0.7h2.3v-1.3
				H588.9v1.3h2.3v0.7h4.7l26.1,23.2c-4,1.1-7.8,2.5-11.2,4.1c-0.4,0.2-0.7,0.3-1,0.5l-3.3-1.5c0.6-0.4,1-0.8,1-1.3
				c0-1.2-1.9-2.1-4.3-2.1c-2.4,0-4.3,0.9-4.3,2.1c0,1.2,1.9,2.1,4.3,2.1c1.2,0,2.2-0.2,3-0.6l3.3,1.5c-4.8,2.5-8.5,5.4-10.9,8.5
				l-4.2-0.8c0.1-0.2,0.2-0.4,0.2-0.6c0-1.2-1.9-2.1-4.3-2.1s-4.3,0.9-4.3,2.1c0,1.2,1.9,2.1,4.3,2.1c1.8,0,3.3-0.5,4-1.3l4.2,0.8
				c-2.1,2.8-3.2,5.7-3.2,8.8c0,0.2,0,0.5,0,0.7l-5.2,0.1c-0.2-1.1-2-1.9-4.3-1.9c-2.4,0-4.3,0.9-4.3,2.1s1.9,2.1,4.3,2.1
				c2.3,0,4.3-0.9,4.3-2l5.2-0.1c0.3,3.4,1.9,6.7,4.7,9.7l-4,0.9c-0.7-0.7-2.2-1.2-3.9-1.2c-2.4,0-4.3,0.9-4.3,2.1s1.9,2.1,4.3,2.1
				s4.3-0.9,4.3-2.1c0-0.2-0.1-0.5-0.2-0.7l4-0.9c2.6,2.7,6.2,5.1,10.6,7.3c0.4,0.2,0.7,0.3,1.1,0.5l-3.2,1.6
				c-0.8-0.3-1.8-0.5-2.8-0.5c-2.4,0-4.3,0.9-4.3,2.1s1.9,2.1,4.3,2.1s4.3-0.9,4.3-2.1c0-0.5-0.4-1-1.1-1.4l3.2-1.6
				c5.4,2.4,11.6,4.2,18.3,5.4l-1.7,2.4c-0.4-0.1-0.8-0.1-1.2-0.1c-2.4,0-4.3,0.9-4.3,2.1c0,1.2,1.9,2.1,4.3,2.1s4.3-0.9,4.3-2.1
				c0-0.9-1.1-1.6-2.7-1.9l1.7-2.4c5.6,0.9,11.4,1.4,17.5,1.4c0.5,0,1,0,1.5,0l0.2,2.9c-2.1,0.1-3.7,1-3.7,2.1
				c0,1.2,1.9,2.1,4.3,2.1s4.3-0.9,4.3-2.1s-1.9-2.1-4.3-2.1c0,0-0.1,0-0.1,0l-0.2-2.9c6.3-0.1,12.4-0.7,18.1-1.9l1.8,2.1
				c-1.5,0.3-2.6,1.1-2.6,1.9c0,1.2,1.9,2.1,4.3,2.1s4.3-0.9,4.3-2.1c0-1.2-1.9-2.1-4.3-2.1c-0.5,0-0.9,0-1.3,0.1L669,390
				c6.4-1.3,12.2-3.2,17.2-5.6c0.4-0.2,0.7-0.3,1-0.5l3.3,1.5c-0.6,0.4-1,0.8-1,1.3c0,1.2,1.9,2.1,4.3,2.1c2.4,0,4.3-0.9,4.3-2.1
				c0-1.2-1.9-2.1-4.3-2.1c-1.2,0-2.2,0.2-3,0.6l-3.3-1.5c4.8-2.5,8.5-5.4,10.9-8.5l4.2,0.8c-0.1,0.2-0.2,0.4-0.2,0.6
				c0,1.2,1.9,2.1,4.3,2.1c2.4,0,4.3-0.9,4.3-2.1c0-1.2-1.9-2.1-4.3-2.1c-1.8,0-3.3,0.5-4,1.3l-4.2-0.8c2.1-2.8,3.2-5.7,3.2-8.8
				c0-0.2,0-0.5,0-0.7l5.1-0.1c0.2,1.1,2,1.9,4.3,1.9C713.5,367.3,715.5,366.4,715.5,365.3z M697.3,374.8l-14-2.5
				c1.4-1.9,2.2-3.9,2.2-6c0-0.2,0-0.3,0-0.5l14.9-0.2c0,0.2,0,0.5,0,0.7C700.4,369.2,699.3,372.1,697.3,374.8z M684.7,366.2
				c0,2.1-0.8,4.1-2.1,5.9l-31.2-5.6c0.1-0.1,0.1-0.2,0.1-0.3l33.3-0.5C684.7,365.9,684.7,366.1,684.7,366.2z M612.3,366.2
				c0-2.1,0.8-4.1,2.1-5.9l31.2,5.6c-0.1,0.1-0.1,0.2-0.1,0.3l-33.3,0.5C612.3,366.5,612.3,366.4,612.3,366.2z M651.1,366.8
				l31.2,5.6c-1.7,2.1-4.2,4.1-7.3,5.7l-24.3-11C650.9,367,651.1,366.9,651.1,366.8z M674.7,378.3c-3.4,1.7-7.6,3.1-12.3,4.1
				l-12.6-14.9c0.2-0.1,0.4-0.1,0.6-0.2L674.7,378.3z M662,382.4c-3.8,0.7-7.8,1.2-12.1,1.3l-1.1-16.1c0.2,0,0.4,0,0.5-0.1
				L662,382.4z M649.4,383.7c-0.3,0-0.6,0-0.9,0c-4.1,0-8.1-0.3-11.8-1l11.1-15.2c0.2,0,0.4,0,0.6,0L649.4,383.7z M636.3,382.7
				c-4.6-0.8-8.8-2-12.3-3.6l22.8-11.7c0.2,0.1,0.4,0.1,0.6,0.2L636.3,382.7z M623.6,378.9c-3.2-1.5-5.9-3.3-7.8-5.2l30.2-6.7
				c0.1,0.1,0.2,0.2,0.4,0.2L623.6,378.9z M615.6,373.4c-1.9-2-3-4.2-3.2-6.5l33.3-0.5c0,0.1,0.1,0.2,0.2,0.3L615.6,373.4z
				 M614.6,360.1c1.7-2.1,4.2-4.1,7.3-5.7l24,10.9l0.2,0.2c-0.1,0.1-0.2,0.1-0.3,0.2L614.6,360.1z M622.3,354.2c2.3-1.2,5-2.2,7.9-3
				l15.1,13.4L622.3,354.2z M631,351c1.1-0.3,2.3-0.6,3.5-0.8l12.6,14.9c-0.1,0-0.2,0.1-0.3,0.1L631,351z M635,350
				c3.8-0.7,7.8-1.2,12.1-1.3l1.1,16.1c-0.2,0-0.4,0-0.5,0.1L635,350z M660.3,349.7l-11.1,15.2c-0.2,0-0.4,0-0.6,0l-1.1-16.1
				c0.3,0,0.6,0,0.9,0C652.6,348.8,656.6,349.1,660.3,349.7z M660.8,349.8c1.8,0.3,3.6,0.7,5.3,1.2l-15.9,14.1
				c-0.1,0-0.3-0.1-0.5-0.1L660.8,349.8z M666.9,351.2c2.2,0.6,4.3,1.4,6.2,2.2l-20.7,10.7L666.9,351.2z M673.4,353.6
				c3.2,1.5,5.9,3.3,7.8,5.2l-30.2,6.7c-0.1,0-0.1-0.1-0.2-0.1l0.6-0.5L673.4,353.6z M681.5,359c1.9,2,3,4.2,3.2,6.5l-33.3,0.5
				c0-0.1-0.1-0.2-0.2-0.3L681.5,359z M630.6,350.7l-7.1-6.3c1.6-0.4,3.3-0.8,5.1-1.2l5.7,6.7C633,350.1,631.8,350.3,630.6,350.7z
				 M629,343c5.5-1.1,11.5-1.7,17.6-1.8l0.5,7.2c-4.4,0.1-8.5,0.5-12.4,1.3L629,343z M647.1,341.2c0.5,0,1,0,1.4,0
				c5.9,0,11.6,0.5,17,1.4l-5,6.8c-3.8-0.6-7.8-1-12-1c-0.3,0-0.6,0-1,0L647.1,341.2z M666,342.7c2.6,0.4,5.1,1,7.5,1.6l-7.1,6.3
				c-1.7-0.5-3.5-0.9-5.4-1.2L666,342.7z M686.5,383.3l-10.9-4.9c3.2-1.7,5.8-3.6,7.5-5.8l14,2.5C694.8,378,691.2,380.8,686.5,383.3
				z M668.4,389.3l-5.7-6.7c4.8-1,9-2.4,12.5-4.2l10.9,4.9c-0.3,0.2-0.7,0.3-1,0.5C680.3,386.3,674.6,388.1,668.4,389.3z
				 M650.4,391.2L650,384c4.4-0.1,8.5-0.5,12.4-1.3l5.7,6.7C662.5,390.5,656.5,391.1,650.4,391.2z M631.5,389.9l5-6.8
				c3.8,0.6,7.8,1,12,1c0.3,0,0.6,0,1,0l0.5,7.2c-0.5,0-1,0-1.4,0C642.6,391.2,636.9,390.8,631.5,389.9z M613.2,384.6l10.2-5.3
				c3.6,1.6,7.9,2.9,12.6,3.7l-5,6.8C624.5,388.7,618.5,386.9,613.2,384.6z M601.5,376.8l13.6-3c2,2,4.7,3.8,8,5.3l-10.2,5.3
				c-0.3-0.2-0.7-0.3-1-0.5C607.5,381.8,604,379.4,601.5,376.8z M596.7,367.2l14.9-0.2c0.2,2.4,1.3,4.6,3.3,6.7l-13.6,3
				C598.5,373.7,597,370.5,596.7,367.2z M599.8,357.7l14,2.5c-1.4,1.9-2.2,3.9-2.2,6c0,0.2,0,0.3,0,0.5l-14.9,0.2c0-0.2,0-0.5,0-0.7
				C596.7,363.3,597.7,360.4,599.8,357.7z M610.5,349.2l10.9,4.9c-3.2,1.7-5.8,3.6-7.5,5.8l-14-2.5
				C602.3,354.4,605.8,351.6,610.5,349.2z M622.7,344.5l7.1,6.3c-3,0.8-5.7,1.9-8.1,3.1l-10.9-4.9c0.3-0.2,0.7-0.3,1-0.5
				C615.1,347,618.8,345.6,622.7,344.5z M674.2,343.7c-2.5-0.7-5.1-1.2-7.7-1.7l1.5-2.1c0.4,0.1,0.9,0.1,1.4,0.1
				c2.4,0,4.3-0.9,4.3-2.1c0-1.2-1.9-2.1-4.3-2.1c-2.4,0-4.3,0.9-4.3,2.1c0,0.8,1,1.6,2.5,1.9l-1.6,2.1c-5.6-0.9-11.4-1.4-17.5-1.4
				c-0.5,0-1,0-1.5,0l-0.1-2.2c2.2-0.1,3.9-1,3.9-2.1c0-1.2-1.9-2.1-4.3-2.1s-4.3,0.9-4.3,2.1c0,1.1,1.9,2.1,4.2,2.1l0.1,2.2
				c-6.3,0.1-12.4,0.7-18.1,1.9l-1.8-2.1c1.5-0.3,2.6-1.1,2.6-1.9c0-1.2-1.9-2.1-4.3-2.1c-2.4,0-4.3,0.9-4.3,2.1s1.9,2.1,4.3,2.1
				c0.5,0,0.9,0,1.3-0.1l1.8,2.1c-1.8,0.4-3.5,0.8-5.2,1.2l-25.8-23h103L674.2,343.7z M683.8,347.9l-10.2,5.3
				c-1.9-0.9-4.1-1.6-6.4-2.3l7.1-6.3C677.7,345.5,680.9,346.6,683.8,347.9z M695.5,355.6l-13.6,3c-2-2-4.7-3.8-8-5.3l10.2-5.3
				c0.3,0.2,0.7,0.3,1,0.5C689.5,350.6,693,353,695.5,355.6z M700.3,365.3l-14.9,0.2c-0.2-2.4-1.3-4.6-3.3-6.7l13.6-3
				C698.5,358.8,700.1,362,700.3,365.3z"/>
			<rect x="721.6" y="310.5" class="st3" width="55.6" height="39.3"/>
			<rect x="769" y="310.7" class="st3" width="55.6" height="23.8"/>
			<rect x="553.5" y="318.1" class="st3" width="31.2" height="20"/>
			<rect x="749.4" y="310.5" class="st3" width="39.3" height="76.6"/>
			<polygon class="st3" points="853.4,310.5 801.6,310.5 801.6,355.3 840.9,355.3 			"/>
			<rect x="830.7" y="310.5" class="st3" width="45.4" height="10.2"/>
			<rect x="778.5" y="382.3" class="st3" width="1.4" height="20.8"/>
			<rect x="783.1" y="377.9" class="st3" width="1.4" height="20.8"/>
			<rect x="774.4" y="375" class="st3" width="1.4" height="20.8"/>
			<rect x="803.6" y="351.8" class="st3" width="18.6" height="7.1"/>
			<rect x="805.6" y="357.4" class="st3" width="14.5" height="4"/>
			<rect x="829.5" y="354" class="st3" width="3.6" height="2.8"/>
			<rect x="834.3" y="354" class="st3" width="5.1" height="5.4"/>
		</g>
		<g>
			<g>
				<rect x="553.4" y="296.6" class="st4" width="47.1" height="73.3"/>
				<rect x="549.8" y="368.7" class="st4" width="54.2" height="0.7"/>
				<rect x="551.3" y="358.4" class="st4" width="51.2" height="0.7"/>
				<rect x="551.3" y="348.4" class="st4" width="51.2" height="0.7"/>
				<rect x="551.3" y="338.5" class="st4" width="51.2" height="0.7"/>
				<rect x="551.3" y="328.5" class="st4" width="51.2" height="0.7"/>
				<rect x="551.3" y="318.5" class="st4" width="51.2" height="0.7"/>
				<rect x="551.3" y="308.6" class="st4" width="51.2" height="0.7"/>
				<rect x="548.1" y="369.4" class="st4" width="57.7" height="2"/>
				<rect x="557.6" y="360.4" class="st5" width="4.9" height="5.9"/>
				<rect x="568.6" y="360.4" class="st4" width="4.9" height="5.9"/>
				<rect x="579.5" y="360.4" class="st4" width="4.9" height="5.9"/>
				<rect x="590.5" y="360.4" class="st4" width="4.9" height="5.9"/>
				<rect x="557.6" y="350.9" class="st4" width="4.9" height="5.9"/>
				<rect x="568.6" y="350.9" class="st5" width="4.9" height="5.9"/>
				<rect x="579.5" y="350.9" class="st4" width="4.9" height="5.9"/>
				<rect x="590.5" y="350.9" class="st4" width="4.9" height="5.9"/>
				<rect x="557.6" y="340.9" class="st4" width="4.9" height="5.9"/>
				<rect x="568.6" y="340.9" class="st4" width="4.9" height="5.9"/>
				<rect x="579.5" y="340.9" class="st4" width="4.9" height="5.9"/>
				<rect x="590.5" y="340.9" class="st5" width="4.9" height="5.9"/>
				<rect x="557.6" y="330.9" class="st4" width="4.9" height="5.9"/>
				<rect x="568.6" y="330.9" class="st5" width="4.9" height="5.9"/>
				<rect x="579.5" y="330.9" class="st5" width="4.9" height="5.9"/>
				<rect x="590.5" y="330.9" class="st4" width="4.9" height="5.9"/>
				<rect x="557.6" y="321" class="st5" width="4.9" height="5.9"/>
				<rect x="568.6" y="321" class="st4" width="4.9" height="5.9"/>
				<rect x="579.5" y="321" class="st4" width="4.9" height="5.9"/>
				<rect x="590.5" y="321" class="st4" width="4.9" height="5.9"/>
				<rect x="557.6" y="311" class="st4" width="4.9" height="5.9"/>
				<rect x="568.6" y="311" class="st4" width="4.9" height="5.9"/>
				<rect x="579.5" y="311" class="st5" width="4.9" height="5.9"/>
				<rect x="590.5" y="311" class="st4" width="4.9" height="5.9"/>
				<rect x="557.6" y="301" class="st4" width="4.9" height="5.9"/>
				<rect x="568.6" y="301" class="st5" width="4.9" height="5.9"/>
				<rect x="579.5" y="301" class="st4" width="4.9" height="5.9"/>
				<rect x="590.5" y="301" class="st5" width="4.9" height="5.9"/>
				<rect x="556.3" y="370.4" class="st4" width="16" height="3.8"/>
				<rect x="555.3" y="373.7" class="st4" width="18.2" height="0.7"/>
			</g>
			<g>
				<polygon class="st4" points="485.8,296.6 423.1,296.6 423.1,366.2 485.8,373.6 				"/>
				<rect x="420.3" y="296.6" class="st4" width="5.5" height="70.9"/>
				<rect x="436" y="296.6" class="st4" width="5.5" height="72.8"/>
				<rect x="451.7" y="296.6" class="st4" width="5.5" height="74.9"/>
				<rect x="467.4" y="296.6" class="st4" width="5.5" height="76.6"/>
				<rect x="483.1" y="296.6" class="st4" width="5.5" height="78.4"/>
				<rect x="427.3" y="356.1" class="st5" width="7.3" height="5.4"/>
				<rect x="442.9" y="356.1" class="st5" width="7.3" height="5.4"/>
				<rect x="458.6" y="356.1" class="st4" width="7.3" height="5.4"/>
				<rect x="474.3" y="356.1" class="st5" width="7.3" height="5.4"/>
				<rect x="427.3" y="346.7" class="st4" width="7.3" height="5.4"/>
				<rect x="442.9" y="346.7" class="st4" width="7.3" height="5.4"/>
				<rect x="458.6" y="346.7" class="st5" width="7.3" height="5.4"/>
				<rect x="474.3" y="346.7" class="st5" width="7.3" height="5.4"/>
				<rect x="427.3" y="337.4" class="st5" width="7.3" height="5.4"/>
				<rect x="442.9" y="337.4" class="st5" width="7.3" height="5.4"/>
				<rect x="458.6" y="337.4" class="st5" width="7.3" height="5.4"/>
				<rect x="474.3" y="337.4" class="st4" width="7.3" height="5.4"/>
				<rect x="427.3" y="328" class="st5" width="7.3" height="5.4"/>
				<rect x="442.9" y="328" class="st4" width="7.3" height="5.4"/>
				<rect x="458.6" y="328" class="st5" width="7.3" height="5.4"/>
				<rect x="474.3" y="328" class="st5" width="7.3" height="5.4"/>
				<rect x="427.3" y="318.6" class="st5" width="7.3" height="5.4"/>
				<rect x="442.9" y="318.6" class="st5" width="7.3" height="5.4"/>
				<rect x="458.6" y="318.6" class="st4" width="7.3" height="5.4"/>
				<rect x="474.3" y="318.6" class="st5" width="7.3" height="5.4"/>
				<rect x="427.3" y="309.3" class="st4" width="7.3" height="5.4"/>
				<rect x="442.9" y="309.3" class="st4" width="7.3" height="5.4"/>
				<rect x="458.6" y="309.3" class="st5" width="7.3" height="5.4"/>
				<rect x="474.3" y="309.3" class="st5" width="7.3" height="5.4"/>
				<rect x="427.3" y="299.9" class="st5" width="7.3" height="5.4"/>
				<rect x="442.9" y="299.9" class="st4" width="7.3" height="5.4"/>
				<rect x="458.6" y="299.9" class="st5" width="7.3" height="5.4"/>
				<rect x="474.3" y="299.9" class="st4" width="7.3" height="5.4"/>
			</g>
			<polygon class="st4" points="244,362.9 244,362.2 242.5,362.2 242.5,360.1 268.8,360.1 268.8,296.6 225.7,296.6 225.7,356.8 
				225.7,360.1 225.7,362.2 224.1,362.2 224.1,362.9 			"/>
			<rect x="317.4" y="296.6" class="st4" width="36.9" height="37.4"/>
			<g>
				<rect x="156.5" y="296.6" class="st4" width="30" height="46"/>
				<rect x="180.6" y="296.6" class="st4" width="32.7" height="36.4"/>
				<rect x="167.3" y="339" class="st4" width="13.3" height="5.5"/>
				<rect x="182.8" y="332.3" class="st4" width="34.9" height="1.3"/>
			</g>
			<rect x="209.8" y="296.6" class="st4" width="36.7" height="20.8"/>
			<rect x="91.3" y="296.6" class="st4" width="29.8" height="37.7"/>
			<rect x="65.4" y="296.6" class="st4" width="39.2" height="18.9"/>
			<rect x="22.2" y="296.6" class="st4" width="24.5" height="22"/>
			<rect x="42" y="296.6" class="st4" width="58" height="6.9"/>
			<rect x="0" y="296.6" class="st4" width="29.7" height="9.1"/>
			<rect x="121.1" y="296.6" class="st4" width="46.2" height="13.9"/>
			<rect x="256.7" y="296.6" class="st4" width="72" height="6"/>
			<rect x="384.3" y="296.6" class="st4" width="72" height="6"/>
			<polygon class="st4" points="325.9,320.2 298.5,320.2 286.9,299.6 325.9,299.6 			"/>
			<rect x="338.5" y="327.3" class="st4" width="0.8" height="22.9"/>
			<rect x="342.3" y="329" class="st4" width="1" height="13.5"/>
			<rect x="336.9" y="333.4" class="st4" width="13.8" height="6.7"/>
			<rect x="334.5" y="340" class="st4" width="18.3" height="0.6"/>
			<rect x="347.6" y="296.6" class="st4" width="44.7" height="19.3"/>
			<rect x="383.8" y="299.9" class="st4" width="28.7" height="37.3"/>
			<rect x="496" y="296.6" class="st4" width="45.9" height="33.6"/>
			<rect x="481.6" y="296.6" class="st4" width="52.3" height="12.4"/>
			<rect x="539.4" y="296.6" class="st4" width="34" height="4.4"/>
			<rect x="591.8" y="296.6" class="st4" width="55.3" height="12.4"/>
			<g>
				
					<rect x="613.9" y="296.6" transform="matrix(-1 -1.224647e-16 1.224647e-16 -1 1296.658 637.9357)" class="st4" width="68.9" height="44.8"/>
				
					<rect x="612.1" y="341.3" transform="matrix(-1 -1.224647e-16 1.224647e-16 -1 1298.8969 684.4046)" class="st4" width="74.7" height="1.7"/>
				
					<rect x="649.4" y="338.6" transform="matrix(-1 -1.224647e-16 1.224647e-16 -1 1329.1615 686.3663)" class="st4" width="30.3" height="9.1"/>
				
					<rect x="634.5" y="342.2" transform="matrix(-1 -1.224647e-16 1.224647e-16 -1 1274.0411 689.922)" class="st4" width="5.1" height="5.5"/>
				
					<rect x="623.8" y="342.2" transform="matrix(-1 -1.224647e-16 1.224647e-16 -1 1253.2031 689.922)" class="st4" width="5.6" height="5.5"/>
			</g>
			<g>
				
					<rect x="730.1" y="296.6" transform="matrix(-1 -1.224647e-16 1.224647e-16 -1 1514.7217 658.5421)" class="st4" width="54.5" height="65.4"/>
				
					<rect x="728.6" y="361.2" transform="matrix(-1 -1.224647e-16 1.224647e-16 -1 1514.7217 724.3011)" class="st4" width="57.6" height="1.8"/>
				
					<rect x="731.9" y="356.7" transform="matrix(-1 -1.224647e-16 1.224647e-16 -1 1514.7217 722.0972)" class="st4" width="50.8" height="8.8"/>
				
					<rect x="758.8" y="359.4" transform="matrix(-1 -1.224647e-16 1.224647e-16 -1 1537.6501 728.4696)" class="st4" width="20.1" height="9.6"/>
				<polygon class="st4" points="767.2,366.3 778.9,366.3 778.9,371.4 770.5,371.4 				"/>
				
					<rect x="773.1" y="364.3" transform="matrix(-1 -1.224647e-16 1.224647e-16 -1 1547.2625 739.8906)" class="st4" width="1.1" height="11.2"/>
				<path class="st4" d="M772.6,376.2c0-0.3,0.5-0.6,1-0.6s1,0.3,1,0.6c0,0.3-0.5,0.6-1,0.6S772.6,376.5,772.6,376.2z"/>
			</g>
			<rect x="777.2" y="296.6" class="st4" width="24.4" height="27"/>
			<rect x="707.7" y="296.6" class="st4" width="27.8" height="40.1"/>
			<polygon class="st4" points="721.6,296.6 682.4,296.6 682.4,318.1 715.5,311 			"/>
			<rect x="793.5" y="296.6" class="st4" width="59.9" height="11.7"/>
			<rect x="831.3" y="296.6" class="st4" width="34.8" height="46.5"/>
			<rect x="857.9" y="296.6" class="st4" width="57.6" height="8.7"/>
			<rect x="829.5" y="342.5" class="st4" width="38.1" height="1.5"/>
			<rect x="860.6" y="341.2" class="st4" width="0.8" height="9.4"/>
			<rect x="855.5" y="341.8" class="st4" width="0.8" height="7.5"/>
			<polygon class="st4" points="878.9,325.6 863.4,325.6 863.4,304.3 885.5,304.3 			"/>
		</g>
	</g>
</g>
<g id="Object">
	<g>
		<g>
			<g>
				<rect x="250.1" y="96.5" class="st1" width="40.4" height="160.8"/>
				<rect x="256.7" y="85" class="st1" width="27.2" height="67.6"/>
				<rect x="262.7" y="77.7" class="st1" width="15.1" height="37.5"/>
				<polygon class="st1" points="275.4,96.9 265.1,96.9 265.1,71.4 268.9,71.4 272.5,71.4 275.4,71.4 				"/>
				<g>
					<polygon class="st1" points="269.6,85.8 268.5,85.8 268.5,60.3 268.9,60.3 269.3,60.3 269.6,60.3 					"/>
					<polygon class="st1" points="272.1,77 271,77 271,51.4 271.4,51.4 271.8,51.4 272.1,51.4 					"/>
				</g>
				<rect x="249" y="96.1" class="st1" width="42.6" height="1.7"/>
				<rect x="255.7" y="84.1" class="st1" width="29.2" height="1.6"/>
				<rect x="261.6" y="77" class="st1" width="16.8" height="1.3"/>
				<rect x="259.2" y="87.7" class="st2" width="1.3" height="7.1"/>
				<rect x="262.7" y="87.7" class="st2" width="1.3" height="7.1"/>
				<rect x="266.2" y="87.7" class="st2" width="1.3" height="7.1"/>
				<rect x="269.7" y="87.7" class="st2" width="1.3" height="7.1"/>
				<rect x="273.2" y="87.7" class="st2" width="1.3" height="7.1"/>
				<rect x="276.7" y="87.7" class="st2" width="1.3" height="7.1"/>
				<rect x="280.2" y="87.7" class="st2" width="1.3" height="7.1"/>
				<rect x="253.6" y="102.9" class="st1" width="3.1" height="8.4"/>
				<rect x="259.7" y="102.9" class="st2" width="3.1" height="8.4"/>
				<rect x="265.7" y="102.9" class="st1" width="3.1" height="8.4"/>
				<rect x="271.8" y="102.9" class="st1" width="3.1" height="8.4"/>
				<rect x="277.8" y="102.9" class="st1" width="3.1" height="8.4"/>
				<rect x="283.9" y="102.9" class="st1" width="3.1" height="8.4"/>
				<rect x="253.6" y="116" class="st1" width="3.1" height="8.4"/>
				<rect x="259.7" y="116" class="st1" width="3.1" height="8.4"/>
				<rect x="265.7" y="116" class="st1" width="3.1" height="8.4"/>
				<rect x="271.8" y="116" class="st2" width="3.1" height="8.4"/>
				<rect x="277.8" y="116" class="st1" width="3.1" height="8.4"/>
				<rect x="283.9" y="116" class="st1" width="3.1" height="8.4"/>
				<rect x="253.6" y="129.1" class="st1" width="3.1" height="8.4"/>
				<rect x="259.7" y="129.1" class="st1" width="3.1" height="8.4"/>
				<rect x="265.7" y="129.1" class="st1" width="3.1" height="8.4"/>
				<rect x="271.8" y="129.1" class="st1" width="3.1" height="8.4"/>
				<rect x="277.8" y="129.1" class="st2" width="3.1" height="8.4"/>
				<rect x="283.9" y="129.1" class="st2" width="3.1" height="8.4"/>
				<rect x="253.6" y="142.2" class="st2" width="3.1" height="8.4"/>
				<rect x="259.7" y="142.2" class="st1" width="3.1" height="8.4"/>
				<rect x="265.7" y="142.2" class="st1" width="3.1" height="8.4"/>
				<rect x="271.8" y="142.2" class="st1" width="3.1" height="8.4"/>
				<rect x="277.8" y="142.2" class="st1" width="3.1" height="8.4"/>
				<rect x="283.9" y="142.2" class="st1" width="3.1" height="8.4"/>
				<rect x="253.6" y="155.3" class="st1" width="3.1" height="8.4"/>
				<rect x="259.7" y="155.3" class="st2" width="3.1" height="8.4"/>
				<rect x="265.7" y="155.3" class="st1" width="3.1" height="8.4"/>
				<rect x="271.8" y="155.3" class="st2" width="3.1" height="8.4"/>
				<rect x="277.8" y="155.3" class="st1" width="3.1" height="8.4"/>
				<rect x="283.9" y="155.3" class="st1" width="3.1" height="8.4"/>
				<rect x="253.6" y="168.4" class="st1" width="3.1" height="8.4"/>
				<rect x="259.7" y="168.4" class="st1" width="3.1" height="8.4"/>
				<rect x="265.7" y="168.4" class="st1" width="3.1" height="8.4"/>
				<rect x="271.8" y="168.4" class="st1" width="3.1" height="8.4"/>
				<rect x="277.8" y="168.4" class="st1" width="3.1" height="8.4"/>
				<rect x="283.9" y="168.4" class="st2" width="3.1" height="8.4"/>
				<rect x="253.6" y="181.5" class="st1" width="3.1" height="8.4"/>
				<rect x="259.7" y="181.5" class="st2" width="3.1" height="8.4"/>
				<rect x="265.7" y="181.5" class="st2" width="3.1" height="8.4"/>
				<rect x="271.8" y="181.5" class="st1" width="3.1" height="8.4"/>
				<rect x="277.8" y="181.5" class="st1" width="3.1" height="8.4"/>
				<rect x="283.9" y="181.5" class="st1" width="3.1" height="8.4"/>
				<rect x="253.6" y="194.6" class="st1" width="3.1" height="8.4"/>
				<rect x="259.7" y="194.6" class="st1" width="3.1" height="8.4"/>
				<rect x="265.7" y="194.6" class="st1" width="3.1" height="8.4"/>
				<rect x="271.8" y="194.6" class="st1" width="3.1" height="8.4"/>
				<rect x="277.8" y="194.6" class="st2" width="3.1" height="8.4"/>
				<rect x="283.9" y="194.6" class="st1" width="3.1" height="8.4"/>
				<rect x="253.6" y="207.7" class="st1" width="3.1" height="8.4"/>
				<rect x="259.7" y="207.7" class="st2" width="3.1" height="8.4"/>
				<rect x="265.7" y="207.7" class="st1" width="3.1" height="8.4"/>
				<rect x="271.8" y="207.7" class="st1" width="3.1" height="8.4"/>
				<rect x="277.8" y="207.7" class="st1" width="3.1" height="8.4"/>
				<rect x="283.9" y="207.7" class="st1" width="3.1" height="8.4"/>
				<rect x="253.6" y="220.8" class="st1" width="3.1" height="8.4"/>
				<rect x="259.7" y="220.8" class="st1" width="3.1" height="8.4"/>
				<rect x="265.7" y="220.8" class="st1" width="3.1" height="8.4"/>
				<rect x="271.8" y="220.8" class="st2" width="3.1" height="8.4"/>
				<rect x="277.8" y="220.8" class="st1" width="3.1" height="8.4"/>
				<rect x="283.9" y="220.8" class="st2" width="3.1" height="8.4"/>
				<rect x="253.6" y="233.9" class="st2" width="3.1" height="8.4"/>
				<rect x="259.7" y="233.9" class="st1" width="3.1" height="8.4"/>
				<rect x="265.7" y="233.9" class="st2" width="3.1" height="8.4"/>
				<rect x="271.8" y="233.9" class="st1" width="3.1" height="8.4"/>
				<rect x="277.8" y="233.9" class="st1" width="3.1" height="8.4"/>
				<rect x="283.9" y="233.9" class="st1" width="3.1" height="8.4"/>
			</g>
			<g>
				<rect x="132.8" y="102.6" class="st1" width="64.9" height="135.5"/>
				<rect x="130.9" y="100.3" class="st1" width="68.6" height="3.8"/>
				<rect x="134.9" y="95.4" class="st1" width="60.6" height="18.2"/>
				<rect x="139.6" y="87.9" class="st1" width="24" height="19.9"/>
				<polygon class="st1" points="153.5,93.5 139.6,93.5 139.6,83.1 149.5,83.1 				"/>
				<rect x="145.2" y="74.4" class="st1" width="1.3" height="23.3"/>
				<path class="st1" d="M147.1,73.2c0,0.7-0.5,1.2-1.2,1.2c-0.7,0-1.2-0.5-1.2-1.2c0-0.7,0.5-1.2,1.2-1.2
					C146.5,72,147.1,72.5,147.1,73.2z"/>
			</g>
			<polygon class="st1" points="735.5,248.4 664.4,248.4 655.5,49.2 735.5,65.8 			"/>
			<polygon class="st1" points="425.3,134.6 425.3,68.1 414.2,68.1 414.2,50.2 410.2,50.2 410.2,24.1 388.3,24.1 388.3,4.8 
				386.3,4.8 386.3,24.1 382,24.1 382,0 380.1,0 380.1,24.1 366.2,24.1 366.2,68.1 359,68.1 359,134.6 352.9,134.6 352.9,255.9 
				429.7,255.9 429.7,134.6 			"/>
		</g>
		<rect x="42" y="245.9" class="st1" width="849.4" height="20.2"/>
		<polygon class="st3" points="542,261.2 504.3,261.2 519,185.9 542,185.9 		"/>
		<g>
			<rect x="11.5" y="264.1" class="st3" width="891.8" height="31.9"/>
			<polygon class="st3" points="511.1,121.8 511.1,88.4 499.1,88.4 499.1,75.7 492.6,75.7 492.6,65.1 490.3,65.1 490.3,46.8 
				489.7,46.8 489.7,65.1 487.5,65.1 487.5,75.7 481,75.7 481,88.4 469,88.4 469,121.8 466.5,121.8 466.5,182.4 448,182.4 
				448,251.5 466.5,251.5 485.1,251.5 513.5,251.5 513.5,121.8 			"/>
			<polygon class="st3" points="580.5,160.1 522.1,160.1 522.1,161.2 524.7,161.2 524.7,260 577.9,260 577.9,161.2 580.5,161.2 			
				"/>
			<rect x="262.2" y="184.8" class="st3" width="51.8" height="82.3"/>
			<rect x="165.2" y="226.9" class="st3" width="89.1" height="40.2"/>
			<rect x="213" y="137.2" class="st3" width="19.6" height="98.6"/>
			<rect x="217.3" y="110.9" class="st3" width="1" height="53.6"/>
			<rect x="220.6" y="115" class="st3" width="1" height="53.6"/>
			<rect x="214.5" y="131.1" class="st3" width="12" height="13.2"/>
			<rect x="250.9" y="199.5" class="st3" width="34.1" height="67.6"/>
			<rect x="322.4" y="128" class="st3" width="63.9" height="139.1"/>
			<rect x="328.7" y="123.2" class="st3" width="51.4" height="23.2"/>
			<rect x="317.4" y="130.9" class="st3" width="73.8" height="1.6"/>
			<rect x="310.8" y="196.8" class="st3" width="30.1" height="70.3"/>
			<rect x="95.1" y="194.2" class="st3" width="34.6" height="72.9"/>
			<g>
				<rect x="106.3" y="174.3" class="st3" width="68.9" height="92.8"/>
				<rect x="102.3" y="170.8" class="st3" width="74.7" height="3.6"/>
				<rect x="109.3" y="161.1" class="st3" width="30.3" height="18.8"/>
				<rect x="149.5" y="161.1" class="st3" width="5.1" height="11.4"/>
				<rect x="159.6" y="161.1" class="st3" width="5.6" height="11.4"/>
			</g>
			<rect x="76.3" y="238.9" class="st3" width="36.1" height="28.2"/>
			<rect x="62.7" y="226.9" class="st3" width="17.1" height="40.2"/>
			<rect x="42" y="253" class="st3" width="29.2" height="14.1"/>
			<rect x="380" y="235.8" class="st3" width="359.8" height="31.3"/>
			<path class="st3" d="M711.1,149.3c-2.3,0-4.1,1.7-4.3,4l-5.1-0.2c0-0.5,0-1,0-1.5c0-6.3-1.1-12.4-3.2-18.2l4.2-1.6
				c0.7,1.5,2.2,2.6,4,2.6c2.4,0,4.3-1.9,4.3-4.3c0-2.4-1.9-4.3-4.3-4.3c-2.4,0-4.3,1.9-4.3,4.3c0,0.4,0.1,0.9,0.2,1.3l-4.2,1.6
				c-2.4-6.5-6.1-12.4-10.9-17.6l3.3-3.1c0.8,0.7,1.8,1.2,3,1.2c2.4,0,4.3-1.9,4.3-4.3c0-2.4-1.9-4.3-4.3-4.3
				c-2.4,0-4.3,1.9-4.3,4.3c0,1.1,0.4,2,1,2.8l-3.3,3.1c-0.3-0.4-0.7-0.7-1-1.1c-5-5-10.8-8.9-17.2-11.5l1.8-4.4
				c0.4,0.1,0.9,0.2,1.3,0.2c2.4,0,4.3-1.9,4.3-4.3c0-2.4-1.9-4.3-4.3-4.3s-4.3,1.9-4.3,4.3c0,1.8,1.1,3.3,2.6,4l-1.8,4.4
				c-5.7-2.3-11.8-3.6-18.1-3.8l0.2-6.1c0,0,0.1,0,0.1,0c2.4,0,4.3-1.9,4.3-4.3s-1.9-4.3-4.3-4.3s-4.3,1.9-4.3,4.3
				c0,2.2,1.6,4,3.7,4.3l-0.2,6.1c-0.5,0-1,0-1.5,0c-6,0-11.9,1-17.5,2.9l-1.7-4.9c1.6-0.6,2.7-2.2,2.7-4c0-2.4-1.9-4.3-4.3-4.3
				s-4.3,1.9-4.3,4.3c0,2.4,1.9,4.3,4.3,4.3c0.4,0,0.8-0.1,1.2-0.2l1.7,4.9c-6.7,2.4-13,6.2-18.3,11.2l-3.2-3.4
				c0.7-0.8,1.1-1.8,1.1-2.9c0-2.4-1.9-4.3-4.3-4.3s-4.3,1.9-4.3,4.3c0,2.4,1.9,4.3,4.3,4.3c1.1,0,2.1-0.4,2.8-1.1l3.2,3.4
				c-0.4,0.3-0.7,0.7-1.1,1c-4.5,4.5-8,9.6-10.6,15.1l-4-1.9c0.1-0.4,0.2-0.9,0.2-1.4c0-2.4-1.9-4.3-4.3-4.3s-4.3,1.9-4.3,4.3
				s1.9,4.3,4.3,4.3c1.7,0,3.2-1,3.9-2.5l4,1.8c-2.9,6.3-4.5,13.1-4.7,20.2l-5.2-0.2c-0.1-2.3-2-4.2-4.3-4.2c-2.4,0-4.3,1.9-4.3,4.3
				c0,2.4,1.9,4.3,4.3,4.3c2.3,0,4.1-1.7,4.3-4l5.2,0.2c0,0.5,0,1,0,1.5c0,6.3,1.1,12.4,3.2,18.2l-4.2,1.6c-0.7-1.5-2.2-2.6-4-2.6
				c-2.4,0-4.3,1.9-4.3,4.3s1.9,4.3,4.3,4.3s4.3-1.9,4.3-4.3c0-0.4-0.1-0.9-0.2-1.3l4.2-1.6c2.4,6.5,6.1,12.4,10.9,17.6l-3.3,3.1
				c-0.8-0.7-1.8-1.2-3-1.2c-2.4,0-4.3,1.9-4.3,4.3c0,2.4,1.9,4.3,4.3,4.3c2.4,0,4.3-1.9,4.3-4.3c0-1.1-0.4-2-1-2.8l3.3-3.1
				c0.3,0.4,0.7,0.7,1,1.1c3.4,3.4,7.1,6.2,11.2,8.6l-26.1,48.1h-4.7v1.4h-2.3v2.7h119.1v-2.7h-2.3v-1.4h-4.7L675,197.9
				c3.5-2,6.7-4.4,9.7-7.2l4.2,4.5c-0.9,0.8-1.5,2-1.5,3.3c0,2.4,1.9,4.3,4.3,4.3s4.3-1.9,4.3-4.3c0-2.4-1.9-4.3-4.3-4.3
				c-0.9,0-1.8,0.3-2.5,0.8l-4.3-4.5c0.4-0.3,0.7-0.7,1.1-1c4.5-4.5,8-9.6,10.6-15.1l4.7,2.2c-0.1,0.3-0.1,0.7-0.1,1.1
				c0,2.4,1.9,4.3,4.3,4.3s4.3-1.9,4.3-4.3c0-2.4-1.9-4.3-4.3-4.3c-1.9,0-3.4,1.2-4,2.8l-4.6-2.1c2.9-6.3,4.5-13.1,4.7-20.2l5.1,0.2
				c0.1,2.3,2,4.2,4.3,4.2c2.4,0,4.3-1.9,4.3-4.3C715.5,151.3,713.5,149.3,711.1,149.3z M700.4,151.6c0,0.5,0,1,0,1.4l-14.9-0.5
				c0-0.3,0-0.6,0-1c0-4.4-0.8-8.6-2.2-12.5l14-5.2C699.3,139.5,700.4,145.5,700.4,151.6z M684.7,152.6l-33.3-1.1
				c0-0.2,0-0.4-0.1-0.6l31.2-11.5c1.4,3.8,2.1,8,2.1,12.3C684.7,151.9,684.7,152.2,684.7,152.6z M612.3,150.7l33.3,1.1
				c0,0.2,0,0.4,0.1,0.6l-31.2,11.5c-1.4-3.8-2.1-8-2.1-12.3C612.3,151.3,612.3,151,612.3,150.7z M650.8,149.8l24.3-22.8
				c3.1,3.4,5.7,7.4,7.3,11.8l-31.2,11.5C651.1,150.2,650.9,150,650.8,149.8z M650.5,149.5c-0.2-0.2-0.4-0.3-0.6-0.4l12.6-30.8
				c4.7,2,8.8,4.9,12.3,8.5L650.5,149.5z M649.4,148.8c-0.2-0.1-0.4-0.1-0.5-0.1l1.1-33.3c4.3,0.2,8.3,1.1,12.1,2.6L649.4,148.8z
				 M648.4,148.7c-0.2,0-0.4,0-0.6,0.1l-11.1-31.4c3.7-1.3,7.7-2,11.8-2c0.3,0,0.6,0,0.9,0L648.4,148.7z M647.3,149
				c-0.2,0.1-0.4,0.2-0.6,0.4L624,125.1c3.5-3.3,7.7-5.8,12.3-7.5L647.3,149z M646.4,149.7c-0.1,0.2-0.3,0.3-0.4,0.5l-30.2-14
				c1.9-4.1,4.6-7.8,7.8-10.8L646.4,149.7z M645.8,150.6c-0.1,0.2-0.1,0.4-0.2,0.7l-33.3-1.1c0.2-4.8,1.3-9.4,3.2-13.5L645.8,150.6z
				 M645.9,152.8c0.1,0.2,0.2,0.3,0.3,0.5l-0.2,0.4l-24,22.5c-3.2-3.4-5.7-7.4-7.3-11.8L645.9,152.8z M645.2,155l-15.1,27.8
				c-2.9-1.7-5.6-3.8-7.9-6.3L645.2,155z M646.9,154c0.1,0.1,0.2,0.1,0.3,0.2L634.5,185c-1.2-0.5-2.4-1.1-3.5-1.7L646.9,154z
				 M647.6,154.4c0.2,0.1,0.4,0.1,0.5,0.1l-1.1,33.3c-4.3-0.2-8.3-1.1-12.1-2.6L647.6,154.4z M648.5,187.8c-0.3,0-0.6,0-0.9,0
				l1.1-33.3c0.2,0,0.4,0,0.6-0.1l11.1,31.4C656.6,187.1,652.6,187.8,648.5,187.8z M649.7,154.3c0.2-0.1,0.3-0.2,0.5-0.3l15.9,29.3
				c-1.7,0.9-3.4,1.7-5.3,2.4L649.7,154.3z M652.4,156.1l20.7,22.1c-1.9,1.8-4,3.3-6.2,4.6L652.4,156.1z M651.5,154.4l-0.6-1.1
				c0.1-0.1,0.1-0.2,0.2-0.3l30.2,14c-1.9,4.1-4.6,7.8-7.8,10.8L651.5,154.4z M651.2,152.6c0.1-0.2,0.1-0.4,0.2-0.7l33.3,1.1
				c-0.2,4.8-1.3,9.4-3.2,13.5L651.2,152.6z M634.3,185.7l-5.7,13.8c-1.7-0.7-3.4-1.5-5.1-2.4l7.1-13.1
				C631.8,184.6,633,185.2,634.3,185.7z M634.7,185.9c3.8,1.6,8,2.5,12.4,2.6l-0.5,14.9c-6.1-0.2-12-1.5-17.6-3.7L634.7,185.9z
				 M647.6,188.5c0.3,0,0.6,0,1,0c4.2,0,8.3-0.7,12-2l5,14.1c-5.4,1.9-11.1,2.8-17,2.8c-0.5,0-1,0-1.4,0L647.6,188.5z M661,186.4
				c1.9-0.7,3.7-1.5,5.4-2.4l7.1,13.1c-2.4,1.3-4.9,2.5-7.5,3.4L661,186.4z M697.1,133.5l-14,5.2c-1.7-4.5-4.3-8.6-7.5-12.1
				l10.9-10.2C691.2,121.4,694.8,127.2,697.1,133.5z M685.2,115c0.3,0.3,0.7,0.7,1,1l-10.9,10.2c-3.5-3.7-7.8-6.7-12.5-8.7l5.7-13.8
				C674.6,106.3,680.3,110.1,685.2,115z M668,103.5l-5.7,13.8c-3.8-1.6-8-2.5-12.4-2.6l0.5-14.9C656.5,100,662.5,101.3,668,103.5z
				 M648.5,99.8c0.5,0,1,0,1.4,0l-0.5,14.9c-0.3,0-0.6,0-1,0c-4.2,0-8.3,0.7-12,2l-5-14.1C636.9,100.8,642.6,99.8,648.5,99.8z
				 M631,102.8l5,14.1c-4.7,1.7-9,4.3-12.6,7.6l-10.2-10.9C618.5,108.8,624.5,105.1,631,102.8z M611.9,115c0.3-0.3,0.7-0.7,1-1
				l10.2,10.9c-3.3,3.1-6,6.9-8,11.1l-13.6-6.3C604,124.3,607.5,119.3,611.9,115z M601.3,130.1l13.6,6.3c-1.9,4.2-3.1,8.9-3.3,13.8
				l-14.9-0.5C597,142.8,598.5,136.2,601.3,130.1z M596.7,151.6c0-0.5,0-1,0-1.4l14.9,0.5c0,0.3,0,0.6,0,1c0,4.4,0.8,8.6,2.2,12.5
				l-14,5.2C597.7,163.7,596.7,157.8,596.7,151.6z M599.9,169.8l14-5.2c1.7,4.5,4.3,8.6,7.5,12.1l-10.9,10.2
				C605.8,181.9,602.3,176.1,599.9,169.8z M611.9,188.3c-0.3-0.3-0.7-0.7-1-1l10.9-10.2c2.4,2.5,5.1,4.7,8.1,6.4l-7.1,13.2
				C618.8,194.3,615.1,191.6,611.9,188.3z M700,245.9H597l25.8-47.6c1.7,0.9,3.4,1.8,5.2,2.5l-1.8,4.4c-0.4-0.1-0.9-0.2-1.3-0.2
				c-2.4,0-4.3,1.9-4.3,4.3c0,2.4,1.9,4.3,4.3,4.3c2.4,0,4.3-1.9,4.3-4.3c0-1.8-1.1-3.3-2.6-4l1.8-4.4c5.7,2.3,11.8,3.6,18.1,3.8
				l-0.1,4.5c-2.3,0.1-4.2,2-4.2,4.3c0,2.4,1.9,4.3,4.3,4.3s4.3-1.9,4.3-4.3c0-2.3-1.7-4.1-3.9-4.3l0.1-4.5c0.5,0,1,0,1.5,0
				c6,0,11.9-1,17.5-2.9l1.6,4.4c-1.5,0.7-2.5,2.2-2.5,3.9c0,2.4,1.9,4.3,4.3,4.3c2.4,0,4.3-1.9,4.3-4.3s-1.9-4.3-4.3-4.3
				c-0.5,0-1,0.1-1.4,0.2l-1.5-4.4c2.7-1,5.3-2.1,7.7-3.5L700,245.9z M674.3,196.6l-7.1-13.2c2.3-1.3,4.4-2.9,6.4-4.7l10.2,10.9
				C680.9,192.3,677.7,194.7,674.3,196.6z M685.2,188.3c-0.3,0.3-0.7,0.7-1,1l-10.2-10.9c3.3-3.1,6-6.9,8-11.1l13.6,6.3
				C693,179,689.5,183.9,685.2,188.3z M695.7,173.1l-13.6-6.3c1.9-4.2,3.1-8.9,3.3-13.8l14.9,0.5C700.1,160.4,698.5,167,695.7,173.1
				z"/>
			<rect x="721.6" y="185.7" class="st3" width="55.6" height="81.4"/>
			<rect x="769" y="217.3" class="st3" width="55.6" height="49.3"/>
			<rect x="553.5" y="210.1" class="st3" width="31.2" height="41.4"/>
			<rect x="749.4" y="108.3" class="st3" width="39.3" height="158.8"/>
			<polygon class="st3" points="853.4,267.1 801.6,267.1 801.6,174.3 840.9,174.3 			"/>
			<rect x="830.7" y="245.9" class="st3" width="45.4" height="21.2"/>
			<rect x="778.5" y="75.1" class="st3" width="1.4" height="43.2"/>
			<rect x="783.1" y="84.3" class="st3" width="1.4" height="43.2"/>
			<rect x="774.4" y="90.3" class="st3" width="1.4" height="43.2"/>
			<rect x="803.6" y="166.8" class="st3" width="18.6" height="14.6"/>
			<rect x="805.6" y="161.6" class="st3" width="14.5" height="8.2"/>
			<rect x="829.5" y="171.1" class="st3" width="3.6" height="5.9"/>
			<rect x="834.3" y="165.7" class="st3" width="5.1" height="11.3"/>
		</g>
		<g>
			<g>
				<rect x="553.4" y="144.1" class="st4" width="47.1" height="151.9"/>
				<rect x="549.8" y="145" class="st4" width="54.2" height="1.5"/>
				<rect x="551.3" y="166.3" class="st4" width="51.2" height="1.5"/>
				<rect x="551.3" y="187" class="st4" width="51.2" height="1.5"/>
				<rect x="551.3" y="207.6" class="st4" width="51.2" height="1.5"/>
				<rect x="551.3" y="228.3" class="st4" width="51.2" height="1.5"/>
				<rect x="551.3" y="249" class="st4" width="51.2" height="1.5"/>
				<rect x="551.3" y="269.6" class="st4" width="51.2" height="1.5"/>
				<rect x="548.1" y="140.8" class="st4" width="57.7" height="4.2"/>
				<rect x="557.6" y="151.5" class="st5" width="4.9" height="12.1"/>
				<rect x="568.6" y="151.5" class="st4" width="4.9" height="12.1"/>
				<rect x="579.5" y="151.5" class="st4" width="4.9" height="12.1"/>
				<rect x="590.5" y="151.5" class="st4" width="4.9" height="12.1"/>
				<rect x="557.6" y="171.3" class="st4" width="4.9" height="12.1"/>
				<rect x="568.6" y="171.3" class="st5" width="4.9" height="12.1"/>
				<rect x="579.5" y="171.3" class="st4" width="4.9" height="12.1"/>
				<rect x="590.5" y="171.3" class="st4" width="4.9" height="12.1"/>
				<rect x="557.6" y="192" class="st4" width="4.9" height="12.1"/>
				<rect x="568.6" y="192" class="st4" width="4.9" height="12.1"/>
				<rect x="579.5" y="192" class="st4" width="4.9" height="12.1"/>
				<rect x="590.5" y="192" class="st5" width="4.9" height="12.1"/>
				<rect x="557.6" y="212.7" class="st4" width="4.9" height="12.1"/>
				<rect x="568.6" y="212.7" class="st5" width="4.9" height="12.1"/>
				<rect x="579.5" y="212.7" class="st5" width="4.9" height="12.1"/>
				<rect x="590.5" y="212.7" class="st4" width="4.9" height="12.1"/>
				<rect x="557.6" y="233.3" class="st5" width="4.9" height="12.1"/>
				<rect x="568.6" y="233.3" class="st4" width="4.9" height="12.1"/>
				<rect x="579.5" y="233.3" class="st4" width="4.9" height="12.1"/>
				<rect x="590.5" y="233.3" class="st4" width="4.9" height="12.1"/>
				<rect x="557.6" y="254" class="st4" width="4.9" height="12.1"/>
				<rect x="568.6" y="254" class="st4" width="4.9" height="12.1"/>
				<rect x="579.5" y="254" class="st5" width="4.9" height="12.1"/>
				<rect x="590.5" y="254" class="st4" width="4.9" height="12.1"/>
				<rect x="557.6" y="274.7" class="st4" width="4.9" height="12.1"/>
				<rect x="568.6" y="274.7" class="st5" width="4.9" height="12.1"/>
				<rect x="579.5" y="274.7" class="st4" width="4.9" height="12.1"/>
				<rect x="590.5" y="274.7" class="st5" width="4.9" height="12.1"/>
				<rect x="556.3" y="135" class="st4" width="16" height="7.9"/>
				<rect x="555.3" y="134.8" class="st4" width="18.2" height="1.3"/>
			</g>
			<g>
				<polygon class="st4" points="485.8,296 423.1,296 423.1,151.7 485.8,136.3 				"/>
				<rect x="420.3" y="149.1" class="st4" width="5.5" height="146.8"/>
				<rect x="436" y="145" class="st4" width="5.5" height="151"/>
				<rect x="451.7" y="140.7" class="st4" width="5.5" height="155.3"/>
				<rect x="467.4" y="137.2" class="st4" width="5.5" height="158.8"/>
				<rect x="483.1" y="133.5" class="st4" width="5.5" height="162.5"/>
				<rect x="427.3" y="161.4" class="st5" width="7.3" height="11.2"/>
				<rect x="442.9" y="161.4" class="st5" width="7.3" height="11.2"/>
				<rect x="458.6" y="161.4" class="st4" width="7.3" height="11.2"/>
				<rect x="474.3" y="161.4" class="st5" width="7.3" height="11.2"/>
				<rect x="427.3" y="180.9" class="st4" width="7.3" height="11.2"/>
				<rect x="442.9" y="180.9" class="st4" width="7.3" height="11.2"/>
				<rect x="458.6" y="180.9" class="st5" width="7.3" height="11.2"/>
				<rect x="474.3" y="180.9" class="st5" width="7.3" height="11.2"/>
				<rect x="427.3" y="200.3" class="st5" width="7.3" height="11.2"/>
				<rect x="442.9" y="200.3" class="st5" width="7.3" height="11.2"/>
				<rect x="458.6" y="200.3" class="st5" width="7.3" height="11.2"/>
				<rect x="474.3" y="200.3" class="st4" width="7.3" height="11.2"/>
				<rect x="427.3" y="219.7" class="st5" width="7.3" height="11.2"/>
				<rect x="442.9" y="219.7" class="st4" width="7.3" height="11.2"/>
				<rect x="458.6" y="219.7" class="st5" width="7.3" height="11.2"/>
				<rect x="474.3" y="219.7" class="st5" width="7.3" height="11.2"/>
				<rect x="427.3" y="239.1" class="st5" width="7.3" height="11.2"/>
				<rect x="442.9" y="239.1" class="st5" width="7.3" height="11.2"/>
				<rect x="458.6" y="239.1" class="st4" width="7.3" height="11.2"/>
				<rect x="474.3" y="239.1" class="st5" width="7.3" height="11.2"/>
				<rect x="427.3" y="258.5" class="st4" width="7.3" height="11.2"/>
				<rect x="442.9" y="258.5" class="st4" width="7.3" height="11.2"/>
				<rect x="458.6" y="258.5" class="st5" width="7.3" height="11.2"/>
				<rect x="474.3" y="258.5" class="st5" width="7.3" height="11.2"/>
				<rect x="427.3" y="278" class="st5" width="7.3" height="11.2"/>
				<rect x="442.9" y="278" class="st4" width="7.3" height="11.2"/>
				<rect x="458.6" y="278" class="st5" width="7.3" height="11.2"/>
				<rect x="474.3" y="278" class="st4" width="7.3" height="11.2"/>
			</g>
			<polygon class="st4" points="244,158.6 244,160.1 242.5,160.1 242.5,164.3 268.8,164.3 268.8,296 225.7,296 225.7,171.2 
				225.7,164.3 225.7,160.1 224.1,160.1 224.1,158.6 			"/>
			<rect x="317.4" y="218.4" class="st4" width="36.9" height="77.6"/>
			<g>
				<rect x="156.5" y="200.6" class="st4" width="30" height="95.4"/>
				<rect x="180.6" y="220.4" class="st4" width="32.7" height="75.5"/>
				<rect x="167.3" y="196.7" class="st4" width="13.3" height="11.4"/>
				<rect x="182.8" y="219.2" class="st4" width="34.9" height="2.8"/>
			</g>
			<rect x="209.8" y="252.8" class="st4" width="36.7" height="43.1"/>
			<rect x="91.3" y="217.8" class="st4" width="29.8" height="78.2"/>
			<rect x="65.4" y="256.7" class="st4" width="39.2" height="39.2"/>
			<rect x="22.2" y="250.3" class="st4" width="24.5" height="45.6"/>
			<rect x="42" y="281.7" class="st4" width="58" height="14.3"/>
			<rect x="0" y="277" class="st4" width="29.7" height="18.9"/>
			<rect x="121.1" y="267.1" class="st4" width="46.2" height="28.9"/>
			<rect x="256.7" y="283.5" class="st4" width="72" height="12.4"/>
			<rect x="384.3" y="283.5" class="st4" width="72" height="12.4"/>
			<polygon class="st4" points="325.9,247 298.5,247 286.9,289.7 325.9,289.7 			"/>
			<rect x="338.5" y="184.9" class="st4" width="0.8" height="47.4"/>
			<rect x="342.3" y="200.9" class="st4" width="1" height="28"/>
			<rect x="336.9" y="205.9" class="st4" width="13.8" height="13.8"/>
			<rect x="334.5" y="204.8" class="st4" width="18.3" height="1.2"/>
			<rect x="347.6" y="255.9" class="st4" width="44.7" height="40"/>
			<rect x="383.8" y="211.9" class="st4" width="28.7" height="77.2"/>
			<rect x="496" y="226.4" class="st4" width="45.9" height="69.6"/>
			<rect x="481.6" y="270.3" class="st4" width="52.3" height="25.6"/>
			<rect x="539.4" y="286.8" class="st4" width="34" height="9.2"/>
			<rect x="591.8" y="270.3" class="st4" width="55.3" height="25.6"/>
			<g>
				
					<rect x="613.9" y="203.2" transform="matrix(-1 -1.224647e-16 1.224647e-16 -1 1296.658 499.1675)" class="st4" width="68.9" height="92.8"/>
				
					<rect x="612.1" y="199.6" transform="matrix(-1 -1.224647e-16 1.224647e-16 -1 1298.8969 402.855)" class="st4" width="74.7" height="3.6"/>
				
					<rect x="649.4" y="190" transform="matrix(-1 -1.224647e-16 1.224647e-16 -1 1329.1615 398.789)" class="st4" width="30.3" height="18.8"/>
				
					<rect x="634.5" y="190" transform="matrix(-1 -1.224647e-16 1.224647e-16 -1 1274.0411 391.4195)" class="st4" width="5.1" height="11.4"/>
				
					<rect x="623.8" y="190" transform="matrix(-1 -1.224647e-16 1.224647e-16 -1 1253.2031 391.4195)" class="st4" width="5.6" height="11.4"/>
			</g>
			<g>
				
					<rect x="730.1" y="160.5" transform="matrix(-1 -1.224647e-16 1.224647e-16 -1 1514.7217 456.4583)" class="st4" width="54.5" height="135.5"/>
				
					<rect x="728.6" y="158.2" transform="matrix(-1 -1.224647e-16 1.224647e-16 -1 1514.7217 320.1646)" class="st4" width="57.6" height="3.8"/>
				
					<rect x="731.9" y="153.3" transform="matrix(-1 -1.224647e-16 1.224647e-16 -1 1514.7217 324.7325)" class="st4" width="50.8" height="18.2"/>
				
					<rect x="758.8" y="145.8" transform="matrix(-1 -1.224647e-16 1.224647e-16 -1 1537.6501 311.525)" class="st4" width="20.1" height="19.9"/>
				<polygon class="st4" points="767.2,151.4 778.9,151.4 778.9,141 770.5,141 				"/>
				
					<rect x="773.1" y="132.3" transform="matrix(-1 -1.224647e-16 1.224647e-16 -1 1547.2625 287.8534)" class="st4" width="1.1" height="23.3"/>
				<path class="st4" d="M772.6,131.1c0,0.7,0.5,1.2,1,1.2s1-0.5,1-1.2c0-0.7-0.5-1.2-1-1.2S772.6,130.4,772.6,131.1z"/>
			</g>
			<rect x="777.2" y="240" class="st4" width="24.4" height="55.9"/>
			<rect x="707.7" y="212.8" class="st4" width="27.8" height="83.2"/>
			<polygon class="st4" points="721.6,296 682.4,296 682.4,251.5 715.5,266.1 			"/>
			<rect x="793.5" y="271.8" class="st4" width="59.9" height="24.2"/>
			<rect x="831.3" y="199.5" class="st4" width="34.8" height="96.5"/>
			<rect x="857.9" y="278" class="st4" width="57.6" height="18"/>
			<rect x="829.5" y="197.7" class="st4" width="38.1" height="3.2"/>
			<rect x="860.6" y="184.1" class="st4" width="0.8" height="19.4"/>
			<rect x="855.5" y="186.6" class="st4" width="0.8" height="15.6"/>
			<polygon class="st4" points="878.9,235.8 863.4,235.8 863.4,280 885.5,280 			"/>
		</g>
	</g>
	<g>
		<g class="st6">
			<rect x="159.6" y="205.4" class="st7" width="2.3" height="2.3"/>
			<rect x="164.2" y="205.4" class="st7" width="2.3" height="2.3"/>
			<rect x="159.6" y="210.7" class="st7" width="2.3" height="2.3"/>
			<rect x="164.2" y="210.7" class="st7" width="2.3" height="2.3"/>
			<rect x="159.6" y="215.9" class="st7" width="2.3" height="2.3"/>
			<rect x="169.3" y="205.4" class="st7" width="2.3" height="2.3"/>
		</g>
		<rect x="325.9" y="137.2" class="st8" width="1.5" height="8.6"/>
		<rect x="331.2" y="137.2" class="st8" width="1.5" height="8.6"/>
		<rect x="336.5" y="137.2" class="st8" width="1.5" height="8.6"/>
		<rect x="341.9" y="137.2" class="st8" width="1.5" height="8.6"/>
		<rect x="347.2" y="137.2" class="st8" width="1.5" height="8.6"/>
		<rect x="352.6" y="137.2" class="st8" width="1.5" height="8.6"/>
		<rect x="357.9" y="137.2" class="st8" width="1.5" height="8.6"/>
		<rect x="363.2" y="137.2" class="st8" width="1.5" height="8.6"/>
		<rect x="368.6" y="137.2" class="st8" width="1.5" height="8.6"/>
		<rect x="373.9" y="137.2" class="st8" width="1.5" height="8.6"/>
		<rect x="379.3" y="137.2" class="st8" width="1.5" height="8.6"/>
		<rect x="325.9" y="149.1" class="st8" width="1.5" height="8.6"/>
		<rect x="331.2" y="149.1" class="st8" width="1.5" height="8.6"/>
		<rect x="336.5" y="149.1" class="st8" width="1.5" height="8.6"/>
		<rect x="341.9" y="149.1" class="st8" width="1.5" height="8.6"/>
		<rect x="347.2" y="149.1" class="st8" width="1.5" height="8.6"/>
		<rect x="352.6" y="149.1" class="st8" width="1.5" height="8.6"/>
		<rect x="357.9" y="149.1" class="st8" width="1.5" height="8.6"/>
		<rect x="363.2" y="149.1" class="st8" width="1.5" height="8.6"/>
		<rect x="368.6" y="149.1" class="st8" width="1.5" height="8.6"/>
		<rect x="373.9" y="149.1" class="st8" width="1.5" height="8.6"/>
		<rect x="379.3" y="149.1" class="st8" width="1.5" height="8.6"/>
		<rect x="325.9" y="161.1" class="st8" width="1.5" height="8.6"/>
		<rect x="331.2" y="161.1" class="st8" width="1.5" height="8.6"/>
		<rect x="336.5" y="161.1" class="st8" width="1.5" height="8.6"/>
		<rect x="341.9" y="161.1" class="st8" width="1.5" height="8.6"/>
		<rect x="347.2" y="161.1" class="st8" width="1.5" height="8.6"/>
		<rect x="352.6" y="161.1" class="st8" width="1.5" height="8.6"/>
		<rect x="357.9" y="161.1" class="st8" width="1.5" height="8.6"/>
		<rect x="363.2" y="161.1" class="st8" width="1.5" height="8.6"/>
		<rect x="368.6" y="161.1" class="st8" width="1.5" height="8.6"/>
		<rect x="373.9" y="161.1" class="st8" width="1.5" height="8.6"/>
		<rect x="379.3" y="161.1" class="st8" width="1.5" height="8.6"/>
		<rect x="341.9" y="173" class="st8" width="1.5" height="8.6"/>
		<rect x="347.2" y="173" class="st8" width="1.5" height="8.6"/>
		<rect x="352.6" y="173" class="st8" width="1.5" height="8.6"/>
		<rect x="357.9" y="173" class="st8" width="1.5" height="8.6"/>
		<rect x="363.2" y="173" class="st8" width="1.5" height="8.6"/>
		<rect x="368.6" y="173" class="st8" width="1.5" height="8.6"/>
		<rect x="373.9" y="173" class="st8" width="1.5" height="8.6"/>
		<rect x="379.3" y="173" class="st8" width="1.5" height="8.6"/>
		<rect x="347.2" y="185.6" class="st8" width="1.5" height="8.6"/>
		<rect x="352.6" y="185.6" class="st8" width="1.5" height="8.6"/>
		<rect x="357.9" y="185.6" class="st8" width="1.5" height="8.6"/>
		<rect x="363.2" y="185.6" class="st8" width="1.5" height="8.6"/>
		<rect x="368.6" y="185.6" class="st8" width="1.5" height="8.6"/>
		<rect x="373.9" y="185.6" class="st8" width="1.5" height="8.6"/>
		<rect x="379.3" y="185.6" class="st8" width="1.5" height="8.6"/>
		<rect x="429.1" y="158.5" class="st9" width="3.7" height="9.3"/>
		<rect x="429.1" y="176.2" class="st9" width="3.7" height="9.3"/>
		<rect x="429.1" y="194" class="st9" width="3.7" height="9.3"/>
		<rect x="429.1" y="211.7" class="st9" width="3.7" height="9.3"/>
		<rect x="429.1" y="228.5" class="st9" width="3.7" height="9.3"/>
		<rect x="429.1" y="246.2" class="st9" width="3.7" height="9.3"/>
		<rect x="444.8" y="158.5" class="st9" width="3.7" height="9.3"/>
		<rect x="444.8" y="176.2" class="st9" width="3.7" height="9.3"/>
		<rect x="444.8" y="194" class="st9" width="3.7" height="9.3"/>
		<rect x="444.8" y="211.7" class="st9" width="3.7" height="9.3"/>
		<rect x="444.8" y="228.5" class="st9" width="3.7" height="9.3"/>
		<rect x="444.8" y="246.2" class="st9" width="3.7" height="9.3"/>
		<rect x="460.5" y="158.5" class="st9" width="3.7" height="9.3"/>
		<rect x="460.5" y="176.2" class="st9" width="3.7" height="9.3"/>
		<rect x="460.5" y="194" class="st9" width="3.7" height="9.3"/>
		<rect x="460.5" y="211.7" class="st9" width="3.7" height="9.3"/>
		<rect x="460.5" y="228.5" class="st9" width="3.7" height="9.3"/>
		<rect x="460.5" y="246.2" class="st9" width="3.7" height="9.3"/>
		<rect x="476.2" y="158.5" class="st9" width="3.7" height="9.3"/>
		<rect x="476.2" y="176.2" class="st9" width="3.7" height="9.3"/>
		<rect x="476.2" y="194" class="st9" width="3.7" height="9.3"/>
		<rect x="476.2" y="211.7" class="st9" width="3.7" height="9.3"/>
		<rect x="476.2" y="228.5" class="st9" width="3.7" height="9.3"/>
		<rect x="476.2" y="246.2" class="st9" width="3.7" height="9.3"/>
		<rect x="370.1" y="29" class="st8" width="3" height="8.1"/>
		<rect x="377.6" y="29" class="st8" width="3" height="8.1"/>
		<rect x="385.2" y="29" class="st8" width="3" height="8.1"/>
		<rect x="392.7" y="29" class="st8" width="3" height="8.1"/>
		<rect x="370.1" y="42.5" class="st8" width="3" height="8.1"/>
		<rect x="377.6" y="42.5" class="st8" width="3" height="8.1"/>
		<rect x="385.2" y="42.5" class="st8" width="3" height="8.1"/>
		<rect x="392.7" y="42.5" class="st8" width="3" height="8.1"/>
		<rect x="370.1" y="56.1" class="st8" width="3" height="8.1"/>
		<rect x="377.6" y="56.1" class="st8" width="3" height="8.1"/>
		<rect x="401.2" y="29" class="st8" width="3" height="8.1"/>
		<rect x="167.3" y="111.3" class="st10" width="1.9" height="7.4"/>
		<rect x="174.2" y="111.3" class="st10" width="1.9" height="7.4"/>
		<rect x="182.2" y="111.3" class="st10" width="1.9" height="7.4"/>
		<rect x="189" y="111.3" class="st10" width="1.9" height="7.4"/>
		<rect x="152.2" y="111.3" class="st10" width="1.9" height="7.4"/>
		<rect x="159" y="111.3" class="st10" width="1.9" height="7.4"/>
		<rect x="167.3" y="124.2" class="st10" width="1.9" height="7.4"/>
		<rect x="174.2" y="124.2" class="st10" width="1.9" height="7.4"/>
		<rect x="182.2" y="124.2" class="st10" width="1.9" height="7.4"/>
		<rect x="189" y="124.2" class="st10" width="1.9" height="7.4"/>
		<rect x="152.2" y="124.2" class="st10" width="1.9" height="7.4"/>
		<rect x="159" y="124.2" class="st10" width="1.9" height="7.4"/>
		<rect x="167.3" y="137.2" class="st10" width="1.9" height="7.4"/>
		<rect x="174.2" y="137.2" class="st10" width="1.9" height="7.4"/>
		<rect x="182.2" y="137.2" class="st10" width="1.9" height="7.4"/>
		<rect x="189" y="137.2" class="st10" width="1.9" height="7.4"/>
		<rect x="152.2" y="137.2" class="st10" width="1.9" height="7.4"/>
		<rect x="159" y="137.2" class="st10" width="1.9" height="7.4"/>
		<rect x="528.7" y="168.4" class="st8" width="3" height="11.5"/>
		<rect x="537.9" y="168.4" class="st8" width="3" height="11.5"/>
		<rect x="546.6" y="168.4" class="st8" width="3" height="11.5"/>
		<rect x="735.5" y="170.8" class="st9" width="2.3" height="6.5"/>
		<rect x="742.6" y="170.8" class="st9" width="2.3" height="6.5"/>
		<rect x="735.5" y="170.8" class="st9" width="2.3" height="6.5"/>
		<rect x="742.6" y="170.8" class="st9" width="2.3" height="6.5"/>
		<rect x="749.4" y="170.8" class="st9" width="2.3" height="6.5"/>
		<rect x="756.5" y="170.8" class="st9" width="2.3" height="6.5"/>
		<rect x="735.5" y="182.4" class="st9" width="2.3" height="6.5"/>
		<rect x="742.6" y="182.4" class="st9" width="2.3" height="6.5"/>
		<rect x="735.5" y="182.4" class="st9" width="2.3" height="6.5"/>
		<rect x="742.6" y="182.4" class="st9" width="2.3" height="6.5"/>
		<rect x="749.4" y="182.4" class="st9" width="2.3" height="6.5"/>
		<rect x="756.5" y="182.4" class="st9" width="2.3" height="6.5"/>
		<rect x="735.5" y="194.8" class="st9" width="2.3" height="6.5"/>
		<rect x="742.6" y="194.8" class="st9" width="2.3" height="6.5"/>
		<rect x="735.5" y="194.8" class="st9" width="2.3" height="6.5"/>
		<rect x="742.6" y="194.8" class="st9" width="2.3" height="6.5"/>
		<rect x="749.4" y="194.8" class="st9" width="2.3" height="6.5"/>
		<rect x="756.5" y="194.8" class="st9" width="2.3" height="6.5"/>
		<rect x="764.3" y="170.8" class="st9" width="2.3" height="6.5"/>
		<rect x="764.3" y="182.4" class="st9" width="2.3" height="6.5"/>
		<rect x="771.5" y="170.8" class="st9" width="2.3" height="6.5"/>
		<rect x="557.6" y="151.5" class="st9" width="2.4" height="10.1"/>
		<rect x="569.8" y="151.5" class="st9" width="2.4" height="10.1"/>
		<rect x="582" y="151.5" class="st9" width="2.4" height="10.1"/>
		<rect x="594.1" y="151.5" class="st9" width="2.4" height="10.1"/>
		<rect x="557.6" y="172.4" class="st9" width="2.4" height="10.1"/>
		<rect x="569.8" y="172.4" class="st9" width="2.4" height="10.1"/>
		<rect x="582" y="172.4" class="st9" width="2.4" height="10.1"/>
		<rect x="594.1" y="172.4" class="st9" width="2.4" height="10.1"/>
		<rect x="557.6" y="193.7" class="st9" width="2.4" height="10.1"/>
		<rect x="569.8" y="193.7" class="st9" width="2.4" height="10.1"/>
		<rect x="582" y="193.7" class="st9" width="2.4" height="10.1"/>
		<rect x="594.1" y="193.7" class="st9" width="2.4" height="10.1"/>
		<rect x="557.6" y="215.1" class="st9" width="2.4" height="10.1"/>
		<rect x="569.8" y="215.1" class="st9" width="2.4" height="10.1"/>
		<rect x="582" y="215.1" class="st9" width="2.4" height="10.1"/>
		<rect x="594.1" y="215.1" class="st9" width="2.4" height="10.1"/>
		<rect x="557.6" y="234.5" class="st9" width="2.4" height="10.1"/>
		<rect x="569.8" y="234.5" class="st9" width="2.4" height="10.1"/>
		<rect x="582" y="234.5" class="st9" width="2.4" height="10.1"/>
		<rect x="557.6" y="256.1" class="st9" width="2.4" height="10.1"/>
		<rect x="569.8" y="256.1" class="st9" width="2.4" height="10.1"/>
		<rect x="582" y="256.1" class="st9" width="2.4" height="10.1"/>
		<rect x="594.1" y="234.5" class="st9" width="2.4" height="10.1"/>
		<rect x="834.4" y="205" class="st9" width="2.5" height="5.8"/>
		<rect x="834.4" y="214.4" class="st9" width="2.5" height="5.8"/>
		<rect x="840.8" y="205" class="st9" width="2.5" height="5.8"/>
	</g>
</g>
</svg>
